<svg width="250" height="298" viewBox="0 0 250 298" fill="none" xmlns="http://www.w3.org/2000/svg">
<g clip-path="url(#clip0_229_5776)">
<path d="M235.503 196.655L235.419 192.974C235.392 191.761 235.353 190.562 235.341 189.369L235.503 189.547C232.893 189.58 230.282 189.65 227.671 189.653L219.839 189.694L220.135 189.369L220.103 196.655L219.839 196.365C221.13 196.376 222.417 196.369 223.711 196.401L227.603 196.474L235.503 196.655ZM235.503 196.655L227.74 196.836L223.8 196.909C222.483 196.94 221.16 196.934 219.839 196.945L219.577 196.948L219.576 196.655L219.544 189.369L219.542 189.042L219.839 189.044L227.671 189.085C230.282 189.088 232.893 189.158 235.503 189.192L235.666 189.194L235.664 189.369C235.654 190.606 235.614 191.834 235.587 193.051L235.503 196.655Z" fill="#E7E8E5"/>
<path d="M226.765 205.842L226.682 202.161C226.655 200.948 226.615 199.749 226.604 198.556L226.765 198.733C224.155 198.767 221.544 198.837 218.933 198.84L211.102 198.881L211.397 198.556L211.365 205.842L211.102 205.552C212.392 205.563 213.679 205.557 214.974 205.588L218.865 205.661L226.765 205.842ZM226.765 205.842L219.001 206.023L215.062 206.096C213.746 206.127 212.421 206.121 211.102 206.131L210.84 206.134L210.838 205.842L210.806 198.556L210.805 198.23L211.102 198.231L218.933 198.272C221.544 198.275 224.155 198.345 226.765 198.378L226.928 198.381L226.927 198.556C226.916 199.792 226.876 201.021 226.85 202.237L226.765 205.842Z" fill="#E7E8E5"/>
<path d="M244.241 205.842L244.157 202.161C244.131 200.948 244.09 199.749 244.08 198.556L244.241 198.733C241.63 198.767 239.02 198.837 236.409 198.84L228.578 198.881L228.873 198.556L228.841 205.842L228.578 205.552C229.868 205.563 231.155 205.557 232.45 205.588L236.341 205.661L244.241 205.842ZM244.241 205.842L236.477 206.023L232.537 206.096C231.221 206.127 229.897 206.121 228.578 206.131L228.314 206.134L228.314 205.842L228.282 198.556L228.281 198.23L228.578 198.231L236.409 198.272C239.02 198.275 241.63 198.345 244.241 198.378L244.404 198.381L244.403 198.556C244.391 199.792 244.352 201.021 244.325 202.237L244.241 205.842Z" fill="#E7E8E5"/>
<path d="M21.4714 196.655L21.3872 192.974C21.3605 191.761 21.3209 190.562 21.3099 189.369L21.4711 189.547C18.8606 189.58 16.2501 189.65 13.6393 189.653L5.80766 189.694L6.10297 189.369L6.07108 196.655L5.80766 196.365C7.09814 196.376 8.38517 196.369 9.67935 196.401L13.5711 196.474L21.4714 196.655ZM21.4714 196.655L13.7077 196.836L9.76761 196.909C8.451 196.94 7.12748 196.934 5.80766 196.945L5.54517 196.948L5.54402 196.655L5.5119 189.369L5.51074 189.042L5.80766 189.044L13.6393 189.085C16.2501 189.088 18.8606 189.158 21.4711 189.192L21.6343 189.194L21.6327 189.369C21.6215 190.606 21.582 191.834 21.555 193.051L21.4714 196.655Z" fill="#E7E8E5"/>
<path d="M30.2092 205.842L30.125 202.161C30.0985 200.948 30.0587 199.749 30.0477 198.556L30.2092 198.733C27.5984 198.767 24.9881 198.837 22.3773 198.84L14.5454 198.881L14.841 198.556L14.8091 205.842L14.5454 205.552C15.8359 205.563 17.1232 205.557 18.4173 205.588L22.3091 205.661L30.2092 205.842ZM30.2092 205.842L22.4455 206.023L18.5056 206.096C17.189 206.127 15.8655 206.121 14.5454 206.131L14.2832 206.134L14.2818 205.842L14.2499 198.556L14.2485 198.23L14.5454 198.231L22.3773 198.272C24.9881 198.275 27.5984 198.345 30.2092 198.378L30.3721 198.381L30.3707 198.556C30.3596 199.792 30.3198 201.021 30.2933 202.237L30.2092 205.842Z" fill="#E7E8E5"/>
<path d="M72.1849 133.764L72.1009 130.083C72.0737 128.87 72.034 127.671 72.0234 126.479L72.1843 126.657C69.5739 126.69 66.9635 126.76 64.3526 126.763L56.521 126.804L56.8161 126.479L56.7845 133.764L56.521 133.474C57.8115 133.485 59.0986 133.48 60.3929 133.51L64.2845 133.583L72.1849 133.764ZM72.1849 133.764L64.4212 133.946L60.4811 134.019C59.1643 134.049 57.8409 134.043 56.521 134.054L56.2585 134.057L56.2572 133.764L56.2255 126.479L56.2241 126.152L56.521 126.154L64.3526 126.194C66.9635 126.198 69.5739 126.268 72.1843 126.301L72.3475 126.303L72.3464 126.479C72.3351 127.715 72.2955 128.945 72.2683 130.16L72.1849 133.764Z" fill="#E7E8E5"/>
<path d="M63.4473 142.951L63.3633 139.27C63.3366 138.057 63.297 136.858 63.2858 135.666L63.4473 135.843C60.8363 135.877 58.2259 135.947 55.6151 135.95L47.7835 135.991L48.0788 135.666L48.0471 142.951L47.7835 142.661C49.0737 142.672 50.3612 142.667 51.6554 142.697L55.5472 142.77L63.4473 142.951ZM63.4473 142.951L55.6837 143.133L51.7434 143.206C50.4271 143.236 49.1033 143.23 47.7835 143.241L47.521 143.244L47.5196 142.951L47.488 135.666L47.4863 135.339L47.7835 135.34L55.6151 135.381C58.2259 135.385 60.8363 135.455 63.4473 135.488L63.6099 135.49L63.6087 135.666C63.5975 136.902 63.5579 138.132 63.5312 139.347L63.4473 142.951Z" fill="#E7E8E5"/>
<path d="M80.9223 142.951L80.8383 139.27C80.8117 138.057 80.7721 136.858 80.7608 135.666L80.9223 135.843C78.3119 135.877 75.7016 135.947 73.0906 135.95L65.2589 135.991L65.554 135.666L65.5227 142.951L65.2589 142.661C66.5496 142.672 67.8367 142.667 69.1309 142.697L73.0226 142.77L80.9223 142.951ZM80.9223 142.951L73.1592 143.133L69.2191 143.206C67.9024 143.236 66.5791 143.23 65.2589 143.241L64.9962 143.244L64.995 142.951L64.9631 135.666L64.9619 135.339L65.2589 135.34L73.0906 135.381C75.7016 135.385 78.3119 135.455 80.9223 135.488L81.0856 135.49L81.0838 135.666C81.0731 136.902 81.0329 138.132 81.0063 139.347L80.9223 142.951Z" fill="#E7E8E5"/>
<path d="M234.597 39.1897L234.513 35.5084C234.487 34.2954 234.447 33.0961 234.436 31.9039L234.597 32.0816C231.987 32.1149 229.376 32.1845 226.765 32.1884L218.933 32.2288L219.229 31.9039L219.197 39.1897L218.933 38.8993C220.224 38.9104 221.512 38.9045 222.805 38.9351L226.697 39.0081L234.597 39.1897ZM234.597 39.1897L226.834 39.3707L222.893 39.4437C221.577 39.4749 220.254 39.4684 218.933 39.4794L218.671 39.4821L218.67 39.1897L218.638 31.9039L218.636 31.577L218.933 31.5784L226.765 31.6194C229.376 31.6226 231.987 31.6929 234.597 31.7262L234.76 31.7281L234.759 31.9039C234.747 33.1403 234.708 34.3696 234.681 35.5852L234.597 39.1897Z" fill="#E7E8E5"/>
<path d="M243.335 48.3761L243.251 44.6954C243.225 43.4824 243.185 42.2831 243.174 41.0909L243.335 41.268C240.724 41.3019 238.114 41.3715 235.503 41.3748L227.672 41.4158L227.967 41.0909L227.935 48.3761L227.672 48.0863C228.962 48.0974 230.249 48.0909 231.543 48.1221L235.435 48.1951L243.335 48.3761ZM243.335 48.3761L235.572 48.5577L231.632 48.6306C230.315 48.6619 228.992 48.6554 227.672 48.6665L227.409 48.6691L227.408 48.3761L227.376 41.0909L227.375 40.764L227.672 40.766L235.503 40.8064C238.114 40.8096 240.724 40.8799 243.335 40.9131L243.498 40.9151L243.497 41.0909C243.486 42.3267 243.446 43.5566 243.419 44.7716L243.335 48.3761Z" fill="#E7E8E5"/>
<path d="M21.4245 39.1975L21.3404 35.5162C21.3138 34.3032 21.2741 33.1039 21.2632 31.9117L21.4245 32.0894C18.814 32.1227 16.2032 32.1923 13.5926 32.1962L5.76078 32.2366L6.05608 31.9117L6.0242 39.1975L5.76078 38.9071C7.05126 38.9189 8.33876 38.9123 9.63271 38.9429L13.5243 39.0159L21.4245 39.1975ZM21.4245 39.1975L13.6608 39.3785L9.72073 39.4514C8.40412 39.482 7.08083 39.4762 5.76078 39.4879L5.49829 39.4899L5.49714 39.1975L5.46548 31.9117L5.46387 31.5848L5.76078 31.5861L13.5926 31.6272C16.2032 31.6304 18.814 31.7007 21.4245 31.7339L21.5874 31.7359L21.586 31.9117C21.5747 33.1481 21.5352 34.3774 21.5086 35.593L21.4245 39.1975Z" fill="#E7E8E5"/>
<path d="M79.3913 92.7297H46.9829V49.4589H79.3913V92.7297Z" fill="#E7E8E5"/>
<path d="M75.6885 88.7802H50.686V53.4078H75.6885V88.7802Z" fill="white"/>
<path d="M51.6618 88.7802H50.686V53.4078H51.6618V88.7802Z" fill="#D4D6D3"/>
<path d="M80.3676 92.7297H79.3916V49.4589H80.3676V92.7297Z" fill="#D4D6D3"/>
<path d="M64.96 77.6177H59.0649V58.2845H64.96V77.6177Z" fill="#D4D6D3"/>
<path d="M72.2127 80.9201H56.4932V71.4485H72.2127V80.9201Z" stroke="#E7E8E5" stroke-width="1.33333" stroke-miterlimit="10"/>
<path d="M40.8581 138.449H8.44971V95.1779H40.8581V138.449Z" fill="#E7E8E5"/>
<path d="M37.155 134.499H12.1528V99.1274H37.155V134.499Z" fill="white"/>
<path d="M13.1284 134.499H12.1528V99.1274H13.1284V134.499Z" fill="#D4D6D3"/>
<path d="M41.8337 138.449H40.8579V95.1779H41.8337V138.449Z" fill="#D4D6D3"/>
<path d="M27.2832 122.327H22.2329V108.271H27.2832V122.327Z" fill="#E7E8E5"/>
<path d="M32.6015 126.503H19.0337V116.813H32.6015V126.503Z" stroke="#D4D6D3" stroke-width="1.33333" stroke-miterlimit="10"/>
<path d="M231.751 256.185H185.362V185.523H231.751V256.185Z" fill="#E7E8E5"/>
<path d="M233.999 185.523H183.115V182.902H233.999V185.523Z" fill="#D4D6D3"/>
<path d="M250.002 185.523H233.999V182.902H250.002V185.523Z" fill="#E7E8E5"/>
<path d="M247.468 256.185H231.751V185.523H247.468V256.185Z" fill="#D4D6D3"/>
<path d="M226.699 218.164H190.415V195.647H226.699V218.164Z" stroke="#BEBFBD" stroke-width="0.333333" stroke-miterlimit="10"/>
<path d="M210.563 206.685H203.477V202.202H210.563V206.685Z" fill="#BEBFBD"/>
<path d="M212.658 206.347H205.571V202.54H212.658V206.347Z" stroke="#BEBFBD" stroke-width="0.333333" stroke-miterlimit="10"/>
<path d="M226.699 246.612H190.415V224.094H226.699V246.612Z" stroke="#BEBFBD" stroke-width="0.333333" stroke-miterlimit="10"/>
<path d="M210.563 235.133H203.477V230.65H210.563V235.133Z" fill="#BEBFBD"/>
<path d="M212.658 234.795H205.571V230.988H212.658V234.795Z" stroke="#BEBFBD" stroke-width="0.333333" stroke-miterlimit="10"/>
<path d="M0 256.185L31.2501 256.027L62.5006 255.97L125.001 255.86L187.501 255.969L218.752 256.026L250.002 256.185L218.752 256.345L187.501 256.402L125.001 256.51L62.5006 256.401L31.2501 256.344L0 256.185Z" fill="#17282F"/>
<path d="M169.393 259.181C169.393 264.89 165.509 269.508 160.719 269.508H75.0855C70.2842 269.508 66.3996 264.89 66.3996 259.181V50.9812C66.3996 39.3518 70.2842 38.7847 75.0855 38.7847H92.2414C93.2381 38.7847 94.0532 40.031 94.0532 41.5767V42.2434C94.0532 45.8642 95.8538 45.8772 98.0625 45.8772H137.731C139.962 45.8772 141.751 45.8642 141.751 42.2434V41.5767C141.751 40.031 142.555 38.7847 143.569 38.7847H160.719C165.509 38.7847 169.393 40.3298 169.393 50.9812V259.181ZM165.758 31.9039H70.0345C64.6896 31.9039 60.3525 36.7592 60.3525 42.7604V265.887C60.3525 271.877 64.6896 276.745 70.0345 276.745H165.758C171.103 276.745 175.452 271.877 175.452 265.887V42.7604C175.452 36.7592 171.103 31.9039 165.758 31.9039Z" fill="#17282F"/>
<path d="M169.394 50.9812V259.181C169.394 264.89 165.51 269.508 160.72 269.508H75.0858C70.2844 269.508 66.3999 264.89 66.3999 259.181V50.9812C66.3999 39.3518 70.2844 38.7847 75.0858 38.7847H92.2416C93.2383 38.7847 94.0535 40.0309 94.0535 41.5767V42.2434C94.0535 45.8642 95.854 45.8772 98.0628 45.8772H137.731C139.962 45.8772 141.751 45.8642 141.751 42.2434V41.5767C141.751 40.0309 142.555 38.7847 143.569 38.7847H160.72C165.51 38.7847 169.394 40.3298 169.394 50.9812Z" fill="white"/>
<path d="M169.394 50.9812V259.181C169.394 264.89 165.51 269.508 160.72 269.508H75.0858C70.2844 269.508 66.3999 264.89 66.3999 259.181V50.9812C66.3999 39.3518 70.2844 38.7847 75.0858 38.7847H92.2416C93.2383 38.7847 94.0535 40.0309 94.0535 41.5767V42.2434C94.0535 45.8642 95.854 45.8772 98.0628 45.8772H137.731C139.962 45.8772 141.751 45.8642 141.751 42.2434V41.5767C141.751 40.0309 142.555 38.7847 143.569 38.7847H160.72C165.51 38.7847 169.394 40.3298 169.394 50.9812Z" fill="white"/>
<path d="M169.394 50.9812V68.9613H66.3999V50.9812C66.3999 39.3519 70.2844 38.7847 75.0858 38.7847H92.2416C93.2383 38.7847 94.0535 40.031 94.0535 41.5767V42.2434C94.0535 45.8642 95.854 45.8772 98.0628 45.8772H137.731C139.962 45.8772 141.751 45.8642 141.751 42.2434V41.5767C141.751 40.031 142.555 38.7847 143.569 38.7847H160.72C165.51 38.7847 169.394 40.3298 169.394 50.9812Z" fill="#00B3BF"/>
<path d="M89.28 43.3203C89.2244 43.3808 89.1694 43.4414 89.1137 43.5019C89.0824 43.5358 89.051 43.571 89.0203 43.6055C88.5749 43.1302 88.0449 42.8762 87.4238 42.8762C86.8033 42.8762 86.2733 43.1289 85.8249 43.6074C85.7953 43.5736 85.7657 43.5391 85.735 43.5052C85.6812 43.444 85.6261 43.3841 85.5717 43.3235C85.5705 43.3222 85.5682 43.3216 85.5664 43.3203C85.5664 43.319 85.5664 43.3177 85.5664 43.3157C85.5705 43.3125 85.5747 43.3092 85.5788 43.3053C85.6486 43.2369 85.7167 43.166 85.7882 43.1009C85.9373 42.9661 86.1 42.8541 86.2733 42.761C86.4773 42.651 86.6915 42.5683 86.9157 42.5233C87.0215 42.5018 87.1292 42.4908 87.2369 42.4765C87.2729 42.4719 87.5101 42.4706 87.5172 42.4713C87.5906 42.4778 87.6633 42.481 87.7361 42.4895C87.9384 42.5136 88.1348 42.5676 88.3252 42.6444C88.4637 42.6998 88.5962 42.7688 88.7239 42.8495C88.8588 42.9348 88.9866 43.0318 89.1049 43.1425C89.164 43.1985 89.2214 43.2584 89.28 43.3157C89.28 43.3177 89.28 43.319 89.28 43.3203Z" fill="white"/>
<path d="M86.3503 44.1791C86.2634 44.0834 86.177 43.9896 86.0889 43.8932C86.387 43.5703 86.7395 43.3658 87.1542 43.304C87.7741 43.2115 88.3059 43.4192 88.7572 43.8887C88.6679 43.9864 88.5815 44.0814 88.494 44.1771C88.1976 43.86 87.841 43.6894 87.4227 43.6894C87.0051 43.6894 86.649 43.8607 86.3503 44.1791Z" fill="white"/>
<path d="M88.2323 44.4669C88.1459 44.5619 88.0595 44.657 87.9714 44.7527C87.8206 44.5919 87.6378 44.5027 87.4225 44.5027C87.2084 44.5034 87.0256 44.5919 86.8736 44.7547C86.786 44.659 86.6996 44.5633 86.6133 44.4682C87.0273 43.9909 87.7733 43.9525 88.2323 44.4669Z" fill="white"/>
<path d="M87.6578 45.0138C87.6578 45.157 87.5525 45.2729 87.4223 45.2729C87.2928 45.2729 87.1875 45.157 87.1875 45.0138C87.1875 44.8705 87.2928 44.7546 87.4223 44.7546C87.5525 44.7546 87.6578 44.8705 87.6578 45.0138Z" fill="white"/>
<path d="M73.1177 43.8718C73.1177 43.457 73.4235 43.1204 73.8003 43.1204C74.1771 43.1204 74.4829 43.457 74.4829 43.8718C74.4829 44.2872 74.1771 44.6231 73.8003 44.6231C73.4235 44.6231 73.1177 44.2872 73.1177 43.8718Z" fill="white"/>
<path d="M75.2681 43.8718C75.2681 43.457 75.5739 43.1204 75.9507 43.1204C76.3275 43.1204 76.6333 43.457 76.6333 43.8718C76.6333 44.2872 76.3275 44.6231 75.9507 44.6231C75.5739 44.6231 75.2681 44.2872 75.2681 43.8718Z" fill="white"/>
<path d="M77.4175 43.8718C77.4175 43.457 77.7233 43.1204 78.1001 43.1204C78.4775 43.1204 78.7833 43.457 78.7833 43.8718C78.7833 44.2872 78.4775 44.6231 78.1001 44.6231C77.7233 44.6231 77.4175 44.2872 77.4175 43.8718Z" fill="white"/>
<path d="M79.5679 43.8718C79.5679 43.457 79.8737 43.1204 80.2505 43.1204C80.6273 43.1204 80.9331 43.457 80.9331 43.8718C80.9331 44.2872 80.6273 44.6231 80.2505 44.6231C79.8737 44.6231 79.5679 44.2872 79.5679 43.8718Z" fill="white"/>
<path d="M81.7173 43.8718C81.7173 43.457 82.0231 43.1204 82.4005 43.1204C82.7773 43.1204 83.0831 43.457 83.0831 43.8718C83.0831 44.2872 82.7773 44.6231 82.4005 44.6231C82.0231 44.6231 81.7173 44.2872 81.7173 43.8718Z" fill="white"/>
<path d="M156.396 45.2007H161.386V42.9902H156.396V45.2007ZM161.67 45.5119H156.113V42.679H161.67V45.5119Z" fill="white"/>
<path d="M160.156 43.1601H156.574V45.0307H160.156V43.1601Z" fill="white"/>
<path d="M162.167 44.853H161.672V43.3379H162.167V44.853Z" fill="white"/>
<path d="M75.7889 62.309L72.7461 59.1707L75.7889 56.033L76.2609 56.5865L73.7552 59.1707L76.2609 61.7556L75.7889 62.309Z" fill="white"/>
<path d="M160.016 56.033L163.058 59.1713L160.016 62.309L159.543 61.7556L162.049 59.1713L159.543 56.5858L160.016 56.033Z" fill="white"/>
<path d="M123.31 41.354H112.49C112.121 41.354 111.821 41.0245 111.821 40.6183C111.821 40.212 112.121 39.8825 112.49 39.8825H123.31C123.679 39.8825 123.979 40.212 123.979 40.6183C123.979 41.0245 123.679 41.354 123.31 41.354Z" fill="white"/>
<path d="M162.414 102.558H73.3911V77.927H162.414V102.558Z" fill="#E7E8E5"/>
<path d="M86.3897 82.8278C82.6756 82.8278 79.6535 86.1536 79.6535 90.2425C79.6535 94.3314 82.6756 97.6572 86.3897 97.6572C90.1045 97.6572 93.1265 94.3314 93.1265 90.2425C93.1265 86.1536 90.1045 82.8278 86.3897 82.8278ZM86.3897 98.8507C82.0775 98.8507 78.5698 94.989 78.5698 90.2425C78.5698 85.496 82.0775 81.635 86.3897 81.635C90.7019 81.635 94.2102 85.496 94.2102 90.2425C94.2102 94.989 90.7019 98.8507 86.3897 98.8507Z" fill="#D4D6D3"/>
<path d="M90.182 93.4778L89.3291 94.4167L82.5981 87.0072L83.4511 86.069L90.182 93.4778Z" fill="#D4D6D3"/>
<path d="M89.3291 86.069L90.182 87.0072L83.4511 94.4167L82.5981 93.4778L89.3291 86.069Z" fill="#D4D6D3"/>
<path d="M157.236 84.867H99.9688V83.6742H157.236V84.867Z" fill="#D4D6D3"/>
<path d="M157.236 89.6266H99.9688V88.4338H157.236V89.6266Z" fill="#D4D6D3"/>
<path d="M146.719 92.022H99.9688V90.8285H146.719V92.022Z" fill="#D4D6D3"/>
<path d="M130.993 94.4167H99.9688V93.2233H130.993V94.4167Z" fill="#D4D6D3"/>
<path d="M146.719 96.8115H99.9688V95.618H146.719V96.8115Z" fill="#D4D6D3"/>
<path d="M162.414 165.732H73.3911V141.102H162.414V165.732Z" fill="#E7E8E5"/>
<path d="M86.3897 146.003C82.6756 146.003 79.6535 149.329 79.6535 153.418C79.6535 157.506 82.6756 160.832 86.3897 160.832C90.1045 160.832 93.1265 157.506 93.1265 153.418C93.1265 149.329 90.1045 146.003 86.3897 146.003ZM86.3897 162.025C82.0775 162.025 78.5698 158.164 78.5698 153.418C78.5698 148.671 82.0775 144.809 86.3897 144.809C90.7019 144.809 94.2102 148.671 94.2102 153.418C94.2102 158.164 90.7019 162.025 86.3897 162.025Z" fill="#D4D6D3"/>
<path d="M90.182 156.652L89.3291 157.591L82.5981 150.182L83.4511 149.243L90.182 156.652Z" fill="#D4D6D3"/>
<path d="M89.3291 149.243L90.182 150.182L83.4511 157.591L82.5981 156.652L89.3291 149.243Z" fill="#D4D6D3"/>
<path d="M157.236 148.042H99.9688V146.849H157.236V148.042Z" fill="#D4D6D3"/>
<path d="M157.236 152.802H99.9688V151.608H157.236V152.802Z" fill="#D4D6D3"/>
<path d="M146.719 155.196H99.9688V154.003H146.719V155.196Z" fill="#D4D6D3"/>
<path d="M130.993 157.591H99.9688V156.398H130.993V157.591Z" fill="#D4D6D3"/>
<path d="M146.719 159.986H99.9688V158.792H146.719V159.986Z" fill="#D4D6D3"/>
<path d="M162.414 197.729H73.3911V173.099H162.414V197.729Z" fill="#E7E8E5"/>
<path d="M86.3897 177.999C82.6756 177.999 79.6535 181.326 79.6535 185.414C79.6535 189.502 82.6756 192.829 86.3897 192.829C90.1045 192.829 93.1265 189.502 93.1265 185.414C93.1265 181.326 90.1045 177.999 86.3897 177.999ZM86.3897 194.023C82.0775 194.023 78.5698 190.16 78.5698 185.414C78.5698 180.668 82.0775 176.806 86.3897 176.806C90.7019 176.806 94.2102 180.668 94.2102 185.414C94.2102 190.16 90.7019 194.023 86.3897 194.023Z" fill="#D4D6D3"/>
<path d="M90.182 188.65L89.3291 189.588L82.5981 182.179L83.4511 181.24L90.182 188.65Z" fill="#D4D6D3"/>
<path d="M89.3291 181.24L90.182 182.179L83.4511 189.588L82.5981 188.65L89.3291 181.24Z" fill="#D4D6D3"/>
<path d="M157.236 180.039H99.9688V178.846H157.236V180.039Z" fill="#D4D6D3"/>
<path d="M157.236 184.799H99.9688V183.605H157.236V184.799Z" fill="#D4D6D3"/>
<path d="M146.719 187.194H99.9688V186.001H146.719V187.194Z" fill="#D4D6D3"/>
<path d="M130.993 189.588H99.9688V188.395H130.993V189.588Z" fill="#D4D6D3"/>
<path d="M146.719 191.983H99.9688V190.79H146.719V191.983Z" fill="#D4D6D3"/>
<path d="M162.414 229.727H73.3911V205.096H162.414V229.727Z" fill="#E7E8E5"/>
<path d="M86.3897 209.997C82.6756 209.997 79.6535 213.323 79.6535 217.412C79.6535 221.5 82.6756 224.826 86.3897 224.826C90.1045 224.826 93.1265 221.5 93.1265 217.412C93.1265 213.323 90.1045 209.997 86.3897 209.997ZM86.3897 226.019C82.0775 226.019 78.5698 222.158 78.5698 217.412C78.5698 212.665 82.0775 208.803 86.3897 208.803C90.7019 208.803 94.2102 212.665 94.2102 217.412C94.2102 222.158 90.7019 226.019 86.3897 226.019Z" fill="#D4D6D3"/>
<path d="M90.182 220.646L89.3291 221.585L82.5981 214.176L83.4511 213.238L90.182 220.646Z" fill="#D4D6D3"/>
<path d="M89.3291 213.238L90.182 214.176L83.4511 221.585L82.5981 220.646L89.3291 213.238Z" fill="#D4D6D3"/>
<path d="M157.236 212.036H99.9688V210.843H157.236V212.036Z" fill="#D4D6D3"/>
<path d="M157.236 216.796H99.9688V215.602H157.236V216.796Z" fill="#D4D6D3"/>
<path d="M146.719 219.19H99.9688V217.997H146.719V219.19Z" fill="#D4D6D3"/>
<path d="M130.993 221.585H99.9688V220.392H130.993V221.585Z" fill="#D4D6D3"/>
<path d="M146.719 223.981H99.9688V222.787H146.719V223.981Z" fill="#D4D6D3"/>
<path d="M165.335 134.872H70.4707V108.626H165.335V134.872Z" fill="#00B3BF"/>
<path d="M68.988 136.619H166.818V106.879H68.988V136.619ZM167.409 137.27H68.3965V106.228H167.409V137.27Z" fill="#00B3BF"/>
<path d="M83.1677 126.49L79.9238 122.876L81.0134 121.691L82.9086 123.802L86.8452 117.008L88.1371 117.915L83.1677 126.49Z" fill="white"/>
<path d="M84.3226 113.848C80.3647 113.848 77.1445 117.392 77.1445 121.749C77.1445 126.106 80.3647 129.65 84.3226 129.65C88.2805 129.65 91.5013 126.106 91.5013 121.749C91.5013 117.392 88.2805 113.848 84.3226 113.848ZM84.3226 130.922C79.7277 130.922 75.9893 126.807 75.9893 121.749C75.9893 116.692 79.7277 112.577 84.3226 112.577C88.9175 112.577 92.6559 116.692 92.6559 121.749C92.6559 126.807 88.9175 130.922 84.3226 130.922Z" fill="white"/>
<path d="M159.816 116.022H98.792V114.749H159.816V116.022Z" fill="white"/>
<path d="M159.816 121.093H98.792V119.821H159.816V121.093Z" fill="white"/>
<path d="M148.609 123.645H98.792V122.374H148.609V123.645Z" fill="white"/>
<path d="M131.852 126.197H98.792V124.925H131.852V126.197Z" fill="white"/>
<path d="M148.609 128.749H98.792V127.477H148.609V128.749Z" fill="white"/>
<path d="M111.149 254.867C111.149 255.756 110.494 256.478 109.686 256.478C108.877 256.478 108.222 255.756 108.222 254.867C108.222 253.977 108.877 253.255 109.686 253.255C110.494 253.255 111.149 253.977 111.149 254.867Z" fill="#D4D6D3"/>
<path d="M120.306 254.867C120.306 256.328 119.23 257.513 117.902 257.513C116.575 257.513 115.499 256.328 115.499 254.867C115.499 253.406 116.575 252.221 117.902 252.221C119.23 252.221 120.306 253.406 120.306 254.867Z" fill="#D4D6D3"/>
<path d="M127.583 254.867C127.583 255.756 126.928 256.478 126.12 256.478C125.311 256.478 124.656 255.756 124.656 254.867C124.656 253.977 125.311 253.255 126.12 253.255C126.928 253.255 127.583 253.977 127.583 254.867Z" fill="#D4D6D3"/>
<path d="M178.421 84.7512C178.421 84.7512 178.332 84.7705 178.184 84.8156C178.19 84.7834 178.208 84.7576 178.226 84.7383H178.232C178.35 84.7512 178.421 84.7512 178.421 84.7512Z" fill="#17282F"/>
<path d="M196.776 116.404C196.774 116.404 196.774 116.4 196.776 116.4" stroke="#F576B7" stroke-linecap="round" stroke-linejoin="round"/>
<path d="M196.776 116.404C196.774 116.404 196.774 116.4 196.776 116.4" stroke="#F576B7" stroke-linecap="round" stroke-linejoin="round"/>
<path d="M185.23 272.854C185.194 272.854 185.158 272.86 185.123 272.866V272.783C185.158 272.802 185.194 272.828 185.23 272.854Z" fill="#F68C95"/>
<path d="M194.988 107.719C198.071 124.539 208.179 151.591 209.174 155.422C210.017 158.671 227.803 152.582 226.579 150.695C225.011 148.277 209.336 117.897 201.805 106.944C195.594 97.9112 193.54 99.8202 194.988 107.719Z" fill="#F68C95"/>
<path d="M225.776 149.309C227.626 151.99 230.524 159.649 231.187 162.205C231.851 164.762 233.275 172.272 231.548 173.03C229.82 173.789 229.244 171.626 229.244 171.626C229.244 171.626 229.389 174.903 227.587 175.491C225.785 176.079 224.988 172.684 224.988 172.684C224.988 172.684 224.914 176.06 223.08 176.506C221.244 176.951 220.962 173.389 220.962 173.389C220.962 173.389 221.026 176.48 219.373 176.147C217.386 175.746 217.853 170.034 216.928 167.272C216.719 166.644 211.85 154.892 211.85 154.892L225.776 149.309Z" fill="#F68C95"/>
<path d="M221.289 173.492C221.624 169.29 221.111 167.388 219.383 163.696C219.35 163.624 219.44 163.553 219.481 163.624C221.471 167.07 222.428 169.353 221.473 173.52C221.426 173.723 221.273 173.691 221.289 173.492Z" fill="#17282F"/>
<path d="M225.254 172.814C225.255 168.417 224.715 166.348 223.164 162.336C223.142 162.279 223.227 162.232 223.254 162.287C225.074 166.084 225.981 168.386 225.455 172.779C225.431 172.979 225.254 173.015 225.254 172.814Z" fill="#17282F"/>
<path d="M229.456 171.222C229.178 166.964 228.674 164.669 226.715 160.986C226.668 160.899 226.779 160.817 226.834 160.899C229.163 164.44 229.811 167.3 229.572 171.198C229.556 171.465 229.473 171.489 229.456 171.222Z" fill="#17282F"/>
<path d="M209.062 153.421C209.062 153.421 209.279 158.701 209.84 160.997C210.4 163.293 215.351 171.003 216.925 169.92C218.956 168.524 216.895 163.453 215.591 161.115C215.591 161.115 220.293 157.887 219.529 153.895C218.765 149.904 209.062 153.421 209.062 153.421Z" fill="#F68C95"/>
<path d="M217.369 169.336C218.386 166.59 216.494 163.642 215.383 161.27C215.299 161.089 215.4 160.951 215.538 160.907C217.427 159.41 219.695 156.691 219.656 153.987C219.656 153.908 219.757 153.895 219.768 153.975C220.168 156.869 218.137 159.74 215.973 161.234C217.148 163.647 218.926 166.695 217.392 169.347C217.383 169.362 217.362 169.353 217.369 169.336Z" fill="#17282F"/>
<path d="M224.827 144.387C224.827 144.387 206.761 153.285 206.338 153.688C206.338 153.688 194.697 113.334 193.739 106.493C192.782 99.6509 195.037 97.8038 199.02 102.564C205.577 110.398 224.827 144.387 224.827 144.387Z" fill="#D4D6D3"/>
<path d="M206.885 152.139C206.541 152.139 206.257 152.452 206.257 152.83C206.257 153.136 206.435 153.39 206.683 153.481C206.879 153.377 207.145 153.233 207.476 153.057C207.5 152.986 207.512 152.908 207.512 152.83C207.512 152.452 207.234 152.139 206.885 152.139ZM222.172 140.069C221.826 140.069 221.545 140.378 221.545 140.759C221.545 141.14 221.826 141.45 222.172 141.45C222.519 141.45 222.799 141.14 222.799 140.759C222.799 140.378 222.519 140.069 222.172 140.069ZM214.529 140.069C214.183 140.069 213.902 140.378 213.902 140.759C213.902 141.14 214.183 141.45 214.529 141.45C214.876 141.45 215.156 141.14 215.156 140.759C215.156 140.378 214.876 140.069 214.529 140.069ZM206.886 140.069C206.54 140.069 206.259 140.378 206.259 140.759C206.259 141.14 206.54 141.45 206.886 141.45C207.233 141.45 207.513 141.14 207.513 140.759C207.513 140.378 207.233 140.069 206.886 140.069ZM218.351 146.078C218.004 146.078 217.724 146.388 217.724 146.768C217.724 147.15 218.004 147.459 218.351 147.459C218.697 147.459 218.978 147.15 218.978 146.768C218.978 146.388 218.697 146.078 218.351 146.078ZM210.707 146.078C210.361 146.078 210.08 146.388 210.08 146.768C210.08 147.15 210.361 147.459 210.707 147.459C211.054 147.459 211.335 147.15 211.335 146.768C211.335 146.388 211.054 146.078 210.707 146.078ZM214.529 127.997C214.183 127.997 213.902 128.305 213.902 128.687C213.902 129.068 214.183 129.378 214.529 129.378C214.876 129.378 215.156 129.068 215.156 128.687C215.156 128.305 214.876 127.997 214.529 127.997ZM206.886 127.997C206.54 127.997 206.259 128.305 206.259 128.687C206.259 129.068 206.54 129.378 206.886 129.378C207.233 129.378 207.513 129.068 207.513 128.687C207.513 128.305 207.233 127.997 206.886 127.997ZM199.242 127.997C199.201 127.997 199.159 128.003 199.124 128.01C199.242 128.446 199.36 128.889 199.485 129.325C199.715 129.221 199.87 128.973 199.87 128.687C199.87 128.303 199.591 127.997 199.242 127.997ZM218.351 134.006C218.004 134.006 217.724 134.315 217.724 134.696C217.724 135.078 218.004 135.387 218.351 135.387C218.697 135.387 218.978 135.078 218.978 134.696C218.978 134.315 218.697 134.006 218.351 134.006ZM210.707 134.006C210.361 134.006 210.08 134.315 210.08 134.696C210.08 135.078 210.361 135.387 210.707 135.387C211.054 135.387 211.335 135.078 211.335 134.696C211.335 134.315 211.054 134.006 210.707 134.006ZM203.064 134.006C202.718 134.006 202.437 134.315 202.437 134.696C202.437 135.078 202.718 135.387 203.064 135.387C203.411 135.387 203.692 135.078 203.692 134.696C203.692 134.315 203.411 134.006 203.064 134.006ZM206.886 115.925C206.54 115.925 206.259 116.233 206.259 116.615C206.259 116.996 206.54 117.305 206.886 117.305C207.233 117.305 207.513 116.996 207.513 116.615C207.513 116.233 207.233 115.925 206.886 115.925ZM199.243 115.925C198.897 115.925 198.616 116.233 198.616 116.615C198.616 116.996 198.897 117.305 199.243 117.305C199.589 117.305 199.871 116.996 199.871 116.615C199.871 116.233 199.589 115.925 199.243 115.925ZM210.707 121.934C210.361 121.934 210.08 122.243 210.08 122.624C210.08 123.006 210.361 123.315 210.707 123.315C211.054 123.315 211.335 123.006 211.335 122.624C211.335 122.243 211.054 121.934 210.707 121.934ZM203.064 121.934C202.718 121.934 202.437 122.243 202.437 122.624C202.437 123.006 202.718 123.315 203.064 123.315C203.411 123.315 203.692 123.006 203.692 122.624C203.692 122.243 203.411 121.934 203.064 121.934ZM199.243 103.852C198.897 103.852 198.616 104.161 198.616 104.543C198.616 104.924 198.897 105.233 199.243 105.233C199.589 105.233 199.871 104.924 199.871 104.543C199.871 104.161 199.589 103.852 199.243 103.852ZM203.064 109.862C202.718 109.862 202.437 110.171 202.437 110.552C202.437 110.934 202.718 111.242 203.064 111.242C203.411 111.242 203.692 110.934 203.692 110.552C203.692 110.171 203.411 109.862 203.064 109.862ZM196.049 110.552C196.049 110.934 195.768 111.242 195.421 111.242C195.075 111.242 194.794 110.934 194.794 110.552C194.794 110.171 195.075 109.862 195.421 109.862C195.768 109.862 196.049 110.171 196.049 110.552Z" fill="white"/>
<path d="M193.738 106.491C194.695 113.336 206.34 153.688 206.34 153.688C206.651 153.389 215.878 148.785 221.519 146.011L197.063 100.643C194.333 98.6235 192.951 100.874 193.738 106.491Z" fill="#BEBFBD"/>
<path d="M220.486 140.437C220.533 140.417 220.574 140.488 220.529 140.516C218.169 141.999 207.278 147.392 205.777 147.916C205.732 147.931 205.7 147.851 205.742 147.828C210.761 145.072 215.765 142.441 220.486 140.437Z" fill="#17282F"/>
<path d="M193.693 99.4758C193.668 100.143 191.618 104.863 188.946 105.282C188.075 105.416 187.195 100.219 187.195 100.219L187.051 99.8515L185.029 94.7071L190.063 89.4554L190.798 88.7457C190.798 88.7457 191.267 90.1937 191.834 92.0018C191.861 92.0858 191.887 92.1698 191.915 92.2597C191.949 92.3612 191.984 92.4563 192.011 92.5526C192.1 92.8216 192.188 93.097 192.271 93.3724C192.335 93.5827 192.398 93.7865 192.458 94.0091C192.524 94.2312 192.583 94.448 192.649 94.6707C193.25 96.8747 193.7 99.1939 193.693 99.4758Z" fill="#F68C95"/>
<path d="M191.834 92.0018C191.176 96.5712 188.374 98.9653 187.051 99.8514L185.029 94.7071L190.063 89.4553L190.798 88.7456C190.798 88.7456 191.267 90.1937 191.834 92.0018Z" fill="#17282F"/>
<path d="M176.824 87.5574C177.166 97.3858 182.534 98.3696 184.479 98.186C186.221 98.0219 192.17 97.6071 192.751 87.7918C193.333 77.9764 189.073 75.0445 185.067 74.9859C181.061 74.9267 176.481 77.7284 176.824 87.5574Z" fill="#F68C95"/>
<path d="M177.191 85.4139C177.396 85.3625 177.579 85.2772 177.777 85.2023C178.002 85.119 178.188 85.078 178.338 84.8618C178.419 84.7459 178.391 84.5337 178.296 84.4373C178.075 84.212 177.777 84.2394 177.503 84.3279C177.207 84.4243 177 84.5818 176.826 84.8631C176.656 85.1346 176.92 85.4823 177.191 85.4139Z" fill="#17282F"/>
<path d="M182.962 85.0728C182.75 85.0708 182.556 85.0305 182.347 85.0051C182.112 84.9764 181.922 84.9803 181.733 84.8052C181.631 84.7108 181.617 84.4972 181.691 84.38C181.863 84.1078 182.159 84.0642 182.444 84.0864C182.753 84.1098 182.985 84.2153 183.211 84.4477C183.43 84.6737 183.24 85.0754 182.962 85.0728Z" fill="#17282F"/>
<path d="M181.89 87.6362C181.892 87.6101 181.94 87.6635 181.941 87.6909C181.974 88.3602 182.113 89.12 182.679 89.2906C182.696 89.2958 182.697 89.329 182.676 89.3277C182 89.2874 181.823 88.2755 181.89 87.6362Z" fill="#17282F"/>
<path d="M182.377 86.8887C183.346 86.7155 183.589 88.8615 182.691 89.021C181.808 89.1786 181.565 87.0339 182.377 86.8887Z" fill="#17282F"/>
<path d="M182.772 86.9499C182.957 87.0476 183.148 87.239 183.356 87.2332C183.596 87.226 183.75 86.9773 183.88 86.7396C183.894 86.7149 183.913 86.7318 183.917 86.7598C183.969 87.17 183.873 87.6121 183.48 87.728C183.121 87.8341 182.817 87.506 182.677 87.1056C182.651 87.0313 182.698 86.9102 182.772 86.9499Z" fill="#17282F"/>
<path d="M178.602 87.7117C178.595 87.6863 178.559 87.7494 178.563 87.7768C178.663 88.4376 178.675 89.2131 178.156 89.5133C178.139 89.5224 178.145 89.5556 178.165 89.5497C178.819 89.3492 178.793 88.3198 178.602 87.7117Z" fill="#17282F"/>
<path d="M177.981 87.0964C177 87.1563 177.183 89.3095 178.09 89.2535C178.984 89.1988 178.802 87.0456 177.981 87.0964Z" fill="#17282F"/>
<path d="M177.585 87.2794C177.44 87.4096 177.305 87.6323 177.121 87.6648C176.908 87.7019 176.73 87.4858 176.575 87.2761C176.559 87.2546 176.545 87.2741 176.547 87.3028C176.571 87.7149 176.731 88.131 177.097 88.1733C177.431 88.2117 177.641 87.8341 177.696 87.4154C177.706 87.3373 177.643 87.2273 177.585 87.2794Z" fill="#17282F"/>
<path d="M182.48 92.7655C182.361 92.9472 182.25 93.1874 182.036 93.248C181.831 93.3066 181.57 93.2493 181.365 93.2037C181.345 93.1992 181.33 93.2246 181.345 93.2422C181.54 93.4661 181.893 93.5631 182.162 93.4577C182.425 93.3541 182.52 93.0703 182.543 92.7851C182.546 92.7447 182.498 92.7395 182.48 92.7655Z" fill="#17282F"/>
<path d="M179.707 90.6735C179.707 90.6735 179.683 91.6834 179.731 92.1522C179.736 92.1958 179.841 92.2036 179.986 92.1952C179.994 92.1971 179.998 92.1997 180.003 92.1939C180.769 92.2297 181.497 91.8501 181.885 91.1169C181.909 91.0681 181.851 91.0264 181.815 91.0603C181.299 91.5838 180.691 91.7778 180.025 91.8729C179.982 91.7466 180.117 90.1455 180.049 90.1481C179.814 90.1553 179.373 90.3864 179.107 90.5095C179.099 88.4051 179.398 86.3164 179.362 84.2218C179.36 84.1463 179.261 84.1365 179.248 84.2049C178.794 86.3691 178.754 88.7912 178.711 90.9646C178.703 91.2354 179.544 90.7745 179.707 90.6735Z" fill="#17282F"/>
<path d="M179.984 91.8305C179.984 91.8305 180.404 92.4576 180.981 92.6848C181.193 92.7694 181.422 92.8033 181.663 92.7336C182.156 92.5923 182.169 92.0942 182.08 91.6684C182.007 91.3175 181.859 91.0154 181.859 91.0154C181.859 91.0154 181.139 91.755 179.984 91.8305Z" fill="#17282F"/>
<path d="M180.981 92.6848C181.193 92.7694 181.422 92.8033 181.662 92.7336C182.156 92.5923 182.169 92.0942 182.079 91.6684C181.551 91.7264 181.027 92.1203 180.981 92.6848Z" fill="#F578BA"/>
<path d="M241.861 256.645C242.528 258.087 243.18 259.511 243.801 260.898C244.189 261.759 244.561 262.602 244.921 263.417C247.237 268.664 248.879 272.761 248.61 273.275C247.785 274.863 215.273 293.912 213.935 294.165C212.599 294.409 211.865 290.226 212.591 288.38C213.034 287.259 216.712 281.856 219.53 277.796C219.538 277.785 219.54 277.777 219.54 277.777C221.354 275.171 222.806 273.112 222.806 273.112L220.682 268.967L210.976 250.108L232.757 237.435C232.757 237.435 237.541 247.265 241.861 256.645Z" fill="#F68C95"/>
<path d="M213.936 294.163C215.273 293.914 247.788 274.862 248.609 273.272C248.882 272.761 247.239 268.664 244.923 263.415C244.758 263.042 244.588 262.661 244.418 262.281C240.241 265.05 225.896 278.48 218.887 281.179C216.376 282.148 218.716 278.983 218.716 278.983C216.042 282.842 212.995 287.362 212.593 288.378C211.868 290.223 212.599 294.406 213.936 294.163Z" fill="#17282F"/>
<path d="M216.013 267.688C215.754 267.55 200.499 231.655 196.663 218.293C191.677 200.934 185.753 167.766 184.404 161.125C184.404 161.125 180.074 149.819 178.793 137.298C178.791 137.276 207.984 137.294 207.984 137.294C207.984 137.294 215.641 153.416 211.693 164.806C211.332 165.85 217.543 201.685 220.366 208.204C222.807 213.841 240.66 253.018 241.142 253.289L216.013 267.688Z" fill="#273E47"/>
<path d="M236.553 248.055C233.649 249.377 222.422 255.605 219.629 257.185C218.866 257.617 218.103 258.051 217.34 258.484C216.581 258.915 215.771 259.323 215.079 259.875C215.036 259.909 215.078 259.99 215.126 259.976C215.84 259.766 216.525 259.395 217.201 259.07C217.921 258.723 218.636 258.363 219.351 258.003C220.78 257.282 235.103 249.203 236.594 248.141C236.641 248.107 236.606 248.031 236.553 248.055Z" fill="#17282F"/>
<path d="M218 256.599C215.536 250.517 203.757 218.832 201.687 211.854C199.631 204.924 197.906 197.876 196.279 190.811C194.624 183.628 193.069 176.417 191.478 169.216C189.865 161.914 188.286 154.584 187.086 147.184C186.934 146.246 186.784 145.308 186.64 144.369C186.63 144.304 186.527 144.322 186.536 144.387C187.496 151.856 188.805 159.262 190.305 166.621C191.792 173.919 193.418 181.184 195.065 188.44C196.678 195.547 198.384 202.632 200.382 209.623C202.369 216.578 217.049 255.877 217.91 256.661C217.962 256.709 218.028 256.667 218 256.599Z" fill="#17282F"/>
<path d="M178.791 137.298C180.074 149.819 184.404 161.128 184.404 161.128C185.421 166.148 189.065 186.346 192.934 203.404L207.981 137.291C207.981 137.291 178.791 137.278 178.791 137.298Z" fill="#17282F"/>
<path d="M191.847 275.161C191.825 276.78 191.797 278.374 191.758 279.919C191.735 280.88 191.707 281.816 191.678 282.722C191.498 288.552 191.211 293.019 190.754 293.335C189.351 294.315 152.52 294.433 151.23 293.968C149.945 293.496 151.072 289.421 152.498 288.162C153.366 287.399 158.91 284.515 163.125 282.375C163.137 282.369 163.143 282.363 163.143 282.363C165.853 280.992 168.011 279.919 168.011 279.919L167.893 275.161L167.56 253.496H191.891C191.891 253.496 192.011 264.648 191.847 275.161Z" fill="#F68C95"/>
<path d="M196.191 166.048C196.186 166.066 193.695 192.111 192.529 205.23C192.235 208.499 192.033 210.968 191.965 212.028C191.937 212.444 191.92 219.254 191.909 228.161C191.897 235.971 193.661 272.138 193.661 272.138H166.039C166.039 272.138 167.221 215.898 167.638 209.553C167.689 208.816 167.734 208.059 167.779 207.283C168.867 189.313 169.464 163.151 177.471 137.298H208.026C208.026 137.298 208.781 152.266 202.505 163.251C202.505 163.251 198.012 164.922 196.191 166.048Z" fill="#273E47"/>
<path d="M191.594 265.566C188.457 265.355 175.887 265.541 172.747 265.615C171.889 265.635 171.031 265.658 170.172 265.68C169.319 265.701 168.427 265.678 167.586 265.841C167.534 265.851 167.539 265.943 167.588 265.953C168.314 266.109 169.077 266.106 169.814 266.139C170.599 266.174 171.386 266.196 172.171 266.217C173.743 266.257 189.834 265.899 191.596 265.662C191.652 265.655 191.651 265.57 191.594 265.566Z" fill="#17282F"/>
<path d="M181.252 140.967C179.196 148.579 177.495 156.286 176.189 164.1C174.892 171.853 173.87 179.67 173.096 187.509C172.311 195.455 171.764 203.432 171.402 211.416C171.04 219.38 170.874 227.355 170.863 235.329C170.851 243.3 170.76 263.034 170.815 264.032C170.819 264.099 170.908 264.096 170.908 264.03C170.947 256.099 171.457 246.365 171.473 238.434C171.488 230.459 171.616 222.482 171.912 214.514C172.204 206.599 172.669 198.696 173.376 190.813C174.09 182.866 175.029 174.947 176.277 167.08C177.51 159.302 178.997 151.568 180.705 143.903C180.921 142.933 181.148 141.967 181.377 141.001C181.398 140.912 181.275 140.879 181.252 140.967Z" fill="#17282F"/>
<path d="M205.795 161.762C205.015 162.639 203.966 163.116 202.903 163.416C201.759 163.74 200.58 163.939 199.421 164.18C196.832 164.721 194.245 165.195 191.606 165.294C190.12 165.35 188.608 165.307 187.16 164.907C187.102 164.892 187.081 164.988 187.137 165.006C188.428 165.436 189.727 165.77 191.073 165.898C192.429 166.027 193.781 165.952 195.131 165.773C196.499 165.592 197.859 165.301 199.207 164.985C200.416 164.702 201.641 164.404 202.811 163.955C203.973 163.51 205.063 162.886 205.856 161.825C205.889 161.78 205.834 161.72 205.795 161.762Z" fill="#17282F"/>
<path d="M151.231 293.97C152.523 294.432 189.348 294.313 190.753 293.334C191.212 293.016 191.501 288.552 191.676 282.723C191.705 281.894 191.727 281.04 191.75 280.161C187.219 280.759 167.72 285.455 159.37 285.455C157.342 285.455 160.566 283.926 160.168 283.889C156.668 285.697 153.173 287.567 152.5 288.16C151.072 289.418 149.945 293.496 151.231 293.97Z" fill="#17282F"/>
<path d="M177.737 127.921L175.201 142.861C175.201 142.861 205.248 143.322 212.304 142.775C212.304 142.775 204.926 111.143 197.339 102.076C193.544 97.5407 189.088 97.8793 186.248 101.05C185.53 101.853 176.957 114.325 176.054 119.09C175.266 123.294 177.737 127.921 177.737 127.921Z" fill="#D4D6D3"/>
<path d="M206.886 140.069C206.54 140.069 206.259 140.378 206.259 140.759C206.259 141.14 206.54 141.45 206.886 141.45C207.233 141.45 207.513 141.14 207.513 140.759C207.513 140.378 207.233 140.069 206.886 140.069ZM199.243 140.069C198.897 140.069 198.616 140.378 198.616 140.759C198.616 141.14 198.897 141.45 199.243 141.45C199.589 141.45 199.871 141.14 199.871 140.759C199.871 140.378 199.589 140.069 199.243 140.069ZM191.6 140.069C191.254 140.069 190.973 140.378 190.973 140.759C190.973 141.14 191.254 141.45 191.6 141.45C191.946 141.45 192.227 141.14 192.227 140.759C192.227 140.378 191.946 140.069 191.6 140.069ZM183.957 140.069C183.61 140.069 183.33 140.378 183.33 140.759C183.33 141.14 183.61 141.45 183.957 141.45C184.303 141.45 184.584 141.14 184.584 140.759C184.584 140.378 184.303 140.069 183.957 140.069ZM176.314 140.069C175.967 140.069 175.687 140.378 175.687 140.759C175.687 141.14 175.967 141.45 176.314 141.45C176.66 141.45 176.941 141.14 176.941 140.759C176.941 140.378 176.66 140.069 176.314 140.069ZM206.886 127.997C206.54 127.997 206.259 128.305 206.259 128.687C206.259 129.068 206.54 129.378 206.886 129.378C207.233 129.378 207.513 129.068 207.513 128.687C207.513 128.305 207.233 127.997 206.886 127.997ZM199.243 127.997C198.897 127.997 198.616 128.305 198.616 128.687C198.616 129.068 198.897 129.378 199.243 129.378C199.589 129.378 199.871 129.068 199.871 128.687C199.871 128.305 199.589 127.997 199.243 127.997ZM191.6 127.997C191.254 127.997 190.973 128.305 190.973 128.687C190.973 129.068 191.254 129.378 191.6 129.378C191.946 129.378 192.227 129.068 192.227 128.687C192.227 128.305 191.946 127.997 191.6 127.997ZM183.957 127.997C183.61 127.997 183.33 128.305 183.33 128.687C183.33 129.068 183.61 129.378 183.957 129.378C184.303 129.378 184.584 129.068 184.584 128.687C184.584 128.305 184.303 127.997 183.957 127.997ZM210.15 134.384C210.102 134.475 210.079 134.586 210.079 134.696C210.079 134.95 210.203 135.172 210.393 135.289C210.316 134.996 210.232 134.69 210.15 134.384ZM203.064 134.006C202.718 134.006 202.437 134.315 202.437 134.696C202.437 135.078 202.718 135.387 203.064 135.387C203.411 135.387 203.692 135.078 203.692 134.696C203.692 134.315 203.411 134.006 203.064 134.006ZM195.421 134.006C195.075 134.006 194.794 134.315 194.794 134.696C194.794 135.078 195.075 135.387 195.421 135.387C195.768 135.387 196.049 135.078 196.049 134.696C196.049 134.315 195.768 134.006 195.421 134.006ZM187.778 134.006C187.432 134.006 187.151 134.315 187.151 134.696C187.151 135.078 187.432 135.387 187.778 135.387C188.125 135.387 188.406 135.078 188.406 134.696C188.406 134.315 188.125 134.006 187.778 134.006ZM180.135 134.006C179.789 134.006 179.508 134.315 179.508 134.696C179.508 135.078 179.789 135.387 180.135 135.387C180.481 135.387 180.763 135.078 180.763 134.696C180.763 134.315 180.481 134.006 180.135 134.006ZM199.243 115.925C198.897 115.925 198.616 116.233 198.616 116.615C198.616 116.996 198.897 117.305 199.243 117.305C199.589 117.305 199.871 116.996 199.871 116.615C199.871 116.233 199.589 115.925 199.243 115.925ZM191.6 115.925C191.254 115.925 190.973 116.233 190.973 116.615C190.973 116.996 191.254 117.305 191.6 117.305C191.946 117.305 192.227 116.996 192.227 116.615C192.227 116.233 191.946 115.925 191.6 115.925ZM183.957 115.925C183.61 115.925 183.33 116.233 183.33 116.615C183.33 116.996 183.61 117.305 183.957 117.305C184.303 117.305 184.584 116.996 184.584 116.615C184.584 116.233 184.303 115.925 183.957 115.925ZM176.93 116.479C176.824 116.726 176.723 116.973 176.634 117.208C176.818 117.084 176.942 116.863 176.942 116.615C176.942 116.57 176.936 116.518 176.93 116.479ZM203.064 121.934C202.718 121.934 202.437 122.243 202.437 122.624C202.437 123.006 202.718 123.315 203.064 123.315C203.411 123.315 203.692 123.006 203.692 122.624C203.692 122.243 203.411 121.934 203.064 121.934ZM195.421 121.934C195.075 121.934 194.794 122.243 194.794 122.624C194.794 123.006 195.075 123.315 195.421 123.315C195.768 123.315 196.049 123.006 196.049 122.624C196.049 122.243 195.768 121.934 195.421 121.934ZM187.778 121.934C187.432 121.934 187.151 122.243 187.151 122.624C187.151 123.006 187.432 123.315 187.778 123.315C188.125 123.315 188.406 123.006 188.406 122.624C188.406 122.243 188.125 121.934 187.778 121.934ZM180.135 121.934C179.789 121.934 179.508 122.243 179.508 122.624C179.508 123.006 179.789 123.315 180.135 123.315C180.481 123.315 180.763 123.006 180.763 122.624C180.763 122.243 180.481 121.934 180.135 121.934ZM198.787 104.075C198.68 104.192 198.615 104.362 198.615 104.544C198.615 104.922 198.899 105.234 199.242 105.234C199.319 105.234 199.396 105.221 199.467 105.189C199.242 104.804 199.011 104.427 198.787 104.075ZM191.6 103.852C191.254 103.852 190.973 104.161 190.973 104.543C190.973 104.924 191.254 105.233 191.6 105.233C191.946 105.233 192.227 104.924 192.227 104.543C192.227 104.161 191.946 103.852 191.6 103.852ZM184.223 103.919C183.993 104.264 183.751 104.629 183.496 105.013C183.614 105.149 183.774 105.234 183.957 105.234C184.3 105.234 184.585 104.922 184.585 104.544C184.585 104.264 184.437 104.03 184.223 103.919ZM195.421 109.862C195.075 109.862 194.794 110.171 194.794 110.552C194.794 110.934 195.075 111.242 195.421 111.242C195.768 111.242 196.049 110.934 196.049 110.552C196.049 110.171 195.768 109.862 195.421 109.862ZM187.778 109.862C187.432 109.862 187.151 110.171 187.151 110.552C187.151 110.934 187.432 111.242 187.778 111.242C188.125 111.242 188.406 110.934 188.406 110.552C188.406 110.171 188.125 109.862 187.778 109.862ZM180.763 110.554C180.763 110.931 180.479 111.244 180.136 111.244C179.982 111.244 179.84 111.185 179.734 111.074C179.953 110.69 180.178 110.313 180.402 109.929C180.615 110.039 180.763 110.274 180.763 110.554Z" fill="white"/>
<path d="M202.924 112.151C203.643 113.891 204.333 115.648 204.997 117.418C204.891 116.883 204.772 116.352 204.639 115.826C204.62 115.747 204.724 115.723 204.749 115.796C205.01 116.577 205.191 117.377 205.289 118.196C207.414 123.944 209.244 129.837 210.736 135.81C211.016 136.938 211.301 138.068 211.538 139.209C211.784 140.391 212.11 141.574 212.247 142.78C212.256 142.848 212.177 142.869 212.155 142.805C211.806 141.804 211.568 140.739 211.302 139.708C211.045 138.717 210.774 137.729 210.505 136.742C209.956 134.722 209.403 132.703 208.829 130.692C207.694 126.717 206.44 122.785 205.169 118.862C204.441 116.618 203.64 114.401 202.851 112.183C202.835 112.137 202.905 112.106 202.924 112.151Z" fill="#17282F"/>
<path d="M189.039 106.84C187.196 111.343 177.468 129.436 172.176 131.39C163.882 134.455 153.71 132.502 148.35 131.96C145.354 131.657 148.313 111.837 151.514 113.006C155.898 114.608 166.558 116.13 168.133 116.074C169.707 116.018 177.35 107.518 183.2 102.488C188.623 97.8253 192.088 99.3944 189.039 106.84Z" fill="#F68C95"/>
<path d="M125.025 111.663C124.804 114.547 133.969 114.948 133.969 114.948C133.969 114.948 132.738 115.588 132.282 116.936C131.758 118.48 133.728 120.06 133.728 120.06C133.728 120.06 132.605 120.992 132.253 122.47C131.886 124.003 133.668 125.91 133.668 125.91C133.668 125.91 133.055 127.411 133.582 128.928C134.484 131.523 138.267 132.337 140.668 132.882C143.067 133.427 150.197 132.77 151.975 132.369L155.311 114.562C155.311 114.562 149.393 110.859 142.014 109.538C139.594 109.104 125.277 108.398 125.025 111.663Z" fill="#F68C95"/>
<path d="M134.128 114.701C136.768 114.192 139.401 114.571 142.049 114.784C142.108 114.789 142.1 114.891 142.041 114.885C139.41 114.639 136.769 114.971 134.135 114.841C134.062 114.837 134.057 114.715 134.128 114.701Z" fill="#17282F"/>
<path d="M133.82 119.851C134.421 119.756 135.049 119.879 135.645 119.959C136.288 120.047 136.929 120.147 137.569 120.258C138.849 120.48 140.126 120.734 141.395 121.028C141.451 121.042 141.447 121.139 141.387 121.129C140.11 120.911 138.83 120.713 137.546 120.554C136.904 120.474 136.26 120.401 135.617 120.332C135.019 120.268 134.382 120.255 133.807 120.045C133.722 120.014 133.73 119.865 133.82 119.851Z" fill="#17282F"/>
<path d="M133.722 125.917C134.241 125.811 134.848 126.011 135.36 126.112C135.941 126.226 136.524 126.337 137.107 126.444C138.272 126.659 139.437 126.873 140.608 127.043C140.667 127.051 140.66 127.151 140.601 127.144C139.41 126.978 138.217 126.83 137.027 126.653C136.443 126.565 135.86 126.475 135.276 126.381C134.78 126.3 134.152 126.263 133.709 125.981C133.685 125.965 133.696 125.923 133.722 125.917Z" fill="#17282F"/>
<path d="M155.724 113.54L154.289 135.211C154.289 135.211 171.029 133.962 173.674 131.854C176.834 129.337 187.588 112.857 190.092 106.202C192.596 99.5474 189.259 97.3083 184.026 101.622C178.794 105.937 169.503 114.519 168.787 114.922C168.07 115.324 155.724 113.54 155.724 113.54Z" fill="#D4D6D3"/>
<path d="M176.315 127.997C175.966 127.997 175.688 128.303 175.688 128.687C175.688 128.947 175.818 129.175 176.014 129.292C176.267 128.973 176.534 128.635 176.812 128.27C176.7 128.101 176.516 127.997 176.315 127.997ZM168.67 127.997C168.324 127.997 168.043 128.305 168.043 128.687C168.043 129.068 168.324 129.378 168.67 129.378C169.017 129.378 169.298 129.068 169.298 128.687C169.298 128.305 169.017 127.997 168.67 127.997ZM161.028 127.997C160.681 127.997 160.4 128.305 160.4 128.687C160.4 129.068 160.681 129.378 161.028 129.378C161.374 129.378 161.655 129.068 161.655 128.687C161.655 128.305 161.374 127.997 161.028 127.997ZM164.851 134.006C164.727 134.006 164.609 134.045 164.514 134.117C164.691 134.091 164.869 134.065 165.046 134.045C164.987 134.019 164.923 134.006 164.851 134.006ZM157.209 134.006C156.86 134.006 156.576 134.312 156.576 134.696C156.576 134.807 156.599 134.918 156.647 135.009C157.002 134.976 157.392 134.937 157.806 134.905C157.824 134.84 157.836 134.768 157.836 134.696C157.836 134.312 157.552 134.006 157.209 134.006ZM183.957 115.925C183.61 115.925 183.33 116.233 183.33 116.615C183.33 116.996 183.61 117.305 183.957 117.305C184.303 117.305 184.584 116.996 184.584 116.615C184.584 116.233 184.303 115.925 183.957 115.925ZM176.314 115.925C175.967 115.925 175.687 116.233 175.687 116.615C175.687 116.996 175.967 117.305 176.314 117.305C176.66 117.305 176.941 116.996 176.941 116.615C176.941 116.233 176.66 115.925 176.314 115.925ZM168.67 115.925C168.324 115.925 168.043 116.233 168.043 116.615C168.043 116.996 168.324 117.305 168.67 117.305C169.017 117.305 169.298 116.996 169.298 116.615C169.298 116.233 169.017 115.925 168.67 115.925ZM161.028 115.925C160.681 115.925 160.4 116.233 160.4 116.615C160.4 116.996 160.681 117.305 161.028 117.305C161.374 117.305 161.655 116.996 161.655 116.615C161.655 116.233 161.374 115.925 161.028 115.925ZM180.135 121.934C179.789 121.934 179.508 122.243 179.508 122.624C179.508 123.006 179.789 123.315 180.135 123.315C180.481 123.315 180.763 123.006 180.763 122.624C180.763 122.243 180.481 121.934 180.135 121.934ZM172.492 121.934C172.146 121.934 171.865 122.243 171.865 122.624C171.865 123.006 172.146 123.315 172.492 123.315C172.838 123.315 173.119 123.006 173.119 122.624C173.119 122.243 172.838 121.934 172.492 121.934ZM164.849 121.934C164.503 121.934 164.222 122.243 164.222 122.624C164.222 123.006 164.503 123.315 164.849 123.315C165.195 123.315 165.476 123.006 165.476 122.624C165.476 122.243 165.195 121.934 164.849 121.934ZM157.206 121.934C156.86 121.934 156.579 122.243 156.579 122.624C156.579 123.006 156.86 123.315 157.206 123.315C157.553 123.315 157.833 123.006 157.833 122.624C157.833 122.243 157.553 121.934 157.206 121.934ZM183.957 103.852C183.61 103.852 183.33 104.161 183.33 104.543C183.33 104.924 183.61 105.233 183.957 105.233C184.303 105.233 184.584 104.924 184.584 104.543C184.584 104.161 184.303 103.852 183.957 103.852ZM187.778 109.863C187.429 109.863 187.152 110.169 187.152 110.554C187.152 110.905 187.388 111.198 187.701 111.237C187.897 110.86 188.092 110.495 188.275 110.137C188.169 109.968 187.986 109.863 187.778 109.863ZM180.763 110.552C180.763 110.934 180.481 111.242 180.135 111.242C179.789 111.242 179.508 110.934 179.508 110.552C179.508 110.171 179.789 109.862 180.135 109.862C180.481 109.862 180.763 110.171 180.763 110.552Z" fill="white"/>
<path d="M177.474 127.381C177.653 127.095 184.597 116.68 186.21 113.752C186.735 112.803 187.275 111.793 187.803 110.91C187.835 110.857 187.919 110.917 187.893 110.978C187.649 111.562 187.449 112.063 187.184 112.579C187.058 112.825 186.931 113.07 186.804 113.316C187.097 112.975 187.408 112.659 187.723 112.342C187.758 112.308 187.812 112.353 187.78 112.396C187.497 112.781 187.215 113.163 186.903 113.52C186.76 113.684 186.616 113.842 186.462 113.993C186.457 113.998 186.452 114.002 186.448 114.007C186.435 114.032 186.423 114.057 186.41 114.082C182.669 120.872 177.899 127.073 177.548 127.433C177.502 127.481 177.437 127.441 177.474 127.381Z" fill="#17282F"/>
<path d="M159.774 115.658C159.781 115.603 159.857 115.598 159.858 115.654C159.932 118.644 159.112 131.758 158.823 133.463C158.814 133.513 158.736 133.507 158.737 133.455C158.898 127.284 159.151 121.186 159.774 115.658Z" fill="#17282F"/>
<path d="M181.841 73.8439C181.229 74.217 177.106 74.6343 176.408 78.3085C175.877 81.105 177.555 82.6097 179.93 82.8239C182.549 83.0602 185.422 81.2196 185.422 81.2196C185.988 84.0655 186.734 87.7286 187.708 88.146C188.501 88.4852 189.422 87.2527 189.422 87.2527C190.4 89.4723 190.728 94.4909 190.494 95.5705C189.942 98.1156 188.136 101.859 191.123 104.562C191.778 105.154 194.32 106.135 196.806 104.774C199.292 103.414 199.426 101.121 200.316 100.184C201.207 99.2453 204.165 98.8904 204.853 96.8981C205.541 94.9057 205.045 92.8639 205.333 91.9061C205.621 90.9483 206.807 90.5609 206.888 88.6011C206.969 86.6419 205.183 86.2037 204.464 84.8501C203.964 83.9067 204.439 82.6298 203.315 81.3472C201.769 79.5827 199.589 81.0613 197.913 79.2897C196.597 77.9003 193.031 72.4499 188.353 71.8574C184.527 71.3736 181.841 73.8439 181.841 73.8439Z" fill="#17282F"/>
<path d="M192.583 73.8595C193.77 74.775 194.721 75.9723 195.77 77.033C196.295 77.563 196.802 78.1145 197.358 78.5898C197.638 78.8183 197.923 79.0579 198.225 79.1998C198.3 79.2448 198.374 79.2754 198.444 79.2858C198.515 79.3053 198.583 79.3294 198.68 79.3275C198.858 79.3405 199.041 79.3398 199.226 79.3366C199.966 79.3359 200.735 79.2845 201.503 79.3704C202.262 79.4518 203.055 79.694 203.62 80.2729C203.898 80.5561 204.131 80.9142 204.235 81.3289C204.344 81.743 204.325 82.1767 204.284 82.5843C204.175 83.3981 204.085 84.2055 204.319 84.9699C203.978 84.2596 204.016 83.3838 204.047 82.5869C204.063 82.1864 204.057 81.7925 203.943 81.4481C203.834 81.1024 203.621 80.8159 203.362 80.5815C202.831 80.1251 202.148 79.8965 201.425 79.8412C200.702 79.7741 199.955 79.8405 199.189 79.8555C198.998 79.8542 198.805 79.8516 198.609 79.8334C198.429 79.8197 198.159 79.7539 198.004 79.653C197.64 79.4681 197.357 79.2129 197.065 78.9655C196.501 78.4517 195.982 77.9029 195.495 77.3221L194.05 75.5745C193.579 74.9827 193.118 74.3837 192.583 73.8595Z" fill="#17282F"/>
<path d="M205.783 91.1378C205.652 91.6775 205.812 92.2355 205.886 92.7818C205.971 93.332 206.057 93.8861 206.117 94.448C206.183 95.0092 206.207 95.5815 206.165 96.1617C206.116 96.7366 205.998 97.3356 205.689 97.8597C205.018 98.8872 203.926 99.2798 202.937 99.4986C202.433 99.6099 201.93 99.6887 201.44 99.8078C200.949 99.914 200.462 100.071 200.059 100.421C200.393 99.9836 200.903 99.7577 201.382 99.5715C201.874 99.4009 202.372 99.2791 202.855 99.1255C203.805 98.8331 204.785 98.4216 205.312 97.5811C205.567 97.1689 205.681 96.6441 205.738 96.1141C205.804 95.5815 205.786 95.0301 205.771 94.4786C205.754 93.9251 205.706 93.3704 205.667 92.8111C205.654 92.5298 205.642 92.2486 205.641 91.9653C205.654 91.688 205.639 91.3832 205.783 91.1378Z" fill="#17282F"/>
<path d="M185.975 80.4584C185.482 81.0125 184.922 81.4657 184.335 81.8531C183.744 82.2294 183.123 82.5511 182.466 82.7457C182.139 82.8434 181.809 82.9437 181.471 82.9892L180.965 83.0732L180.451 83.1064C180.108 83.1481 179.765 83.1051 179.416 83.113C179.069 83.1051 178.725 83.0439 178.369 83.0322C178.704 83.1475 179.046 83.2549 179.392 83.3408C179.743 83.3884 180.095 83.4815 180.453 83.4711C181.169 83.5297 181.89 83.3929 182.585 83.1943C183.28 82.9782 183.934 82.6155 184.517 82.1565C185.1 81.7001 185.611 81.1265 185.975 80.4584Z" fill="#17282F"/>
<path d="M185.684 79.9063C185.365 81.3856 185.303 82.932 185.501 84.4555C185.609 85.2134 185.793 85.9759 186.138 86.6641C186.471 87.349 187.029 87.9533 187.708 88.146C187.095 87.7775 186.701 87.1596 186.434 86.502C186.174 85.8333 186.018 85.1145 185.921 84.3839C185.717 82.9203 185.698 81.4214 185.684 79.9063Z" fill="#17282F"/>
<path d="M188.633 88.0939C188.633 88.0939 190.232 84.7863 191.572 85.3781C192.913 85.97 191.946 90.5824 190.537 91.3846C189.129 92.1867 188.43 90.7667 188.43 90.7667L188.633 88.0939Z" fill="#F68C95"/>
<path d="M191.265 86.6927C191.289 86.6875 191.297 86.7233 191.278 86.7357C190.295 87.3347 189.866 88.4637 189.607 89.609C189.867 89.1467 190.26 88.8596 190.818 89.1936C190.848 89.2112 190.826 89.2613 190.797 89.2587C190.362 89.2157 190.065 89.3375 189.82 89.749C189.647 90.0407 189.545 90.3936 189.434 90.7185C189.397 90.8266 189.224 90.7946 189.247 90.6722C189.248 90.6638 189.25 90.654 189.252 90.6449C189.066 89.1968 189.865 87.0287 191.265 86.6927Z" fill="#17282F"/>
<path d="M130.069 142.008L132.386 148.164L130.072 149.219L127.743 143.02L123.92 146.285V128.941L134.95 141.206L130.069 142.008Z" fill="#17282F"/>
<path d="M125.001 124.369C124.768 123.468 124.715 122.567 124.706 121.666C124.714 120.765 124.766 119.863 125.001 118.962C125.236 119.863 125.288 120.765 125.296 121.666C125.286 122.567 125.234 123.468 125.001 124.369Z" fill="#17282F"/>
<path d="M120.77 126.299C120.026 125.843 119.41 125.246 118.824 124.617C118.251 123.973 117.709 123.294 117.296 122.475C118.041 122.93 118.657 123.526 119.242 124.156C119.814 124.802 120.356 125.479 120.77 126.299Z" fill="#17282F"/>
<path d="M119.018 130.955C118.199 131.212 117.38 131.27 116.562 131.281C115.742 131.271 114.924 131.214 114.105 130.955C114.924 130.697 115.742 130.639 116.562 130.63C117.38 130.641 118.199 130.699 119.018 130.955Z" fill="#17282F"/>
<path d="M120.77 135.613C120.356 136.432 119.814 137.109 119.242 137.754C118.657 138.385 118.041 138.981 117.296 139.436C117.709 138.616 118.251 137.938 118.824 137.294C119.41 136.665 120.026 136.068 120.77 135.613Z" fill="#17282F"/>
<path d="M130.984 130.955C131.802 130.699 132.622 130.641 133.44 130.63C134.259 130.639 135.078 130.697 135.896 130.955C135.078 131.214 134.259 131.271 133.44 131.281C132.622 131.27 131.802 131.212 130.984 130.955Z" fill="#17282F"/>
<path d="M129.232 126.299C129.646 125.479 130.188 124.802 130.76 124.156C131.345 123.526 131.961 122.93 132.706 122.475C132.292 123.294 131.75 123.973 131.178 124.617C130.591 125.246 129.975 125.843 129.232 126.299Z" fill="#17282F"/>
</g>
<defs>
<clipPath id="clip0_229_5776">
<rect width="250" height="296.733" fill="white" transform="translate(0 0.47525)"/>
</clipPath>
</defs>
</svg>
