<svg width="167" height="65" viewBox="0 0 167 65" fill="none" xmlns="http://www.w3.org/2000/svg">
<path d="M51.8464 11.9858C51.7403 11.0445 51.3028 10.3153 50.5339 9.79829C49.7649 9.27462 48.7971 9.01278 47.6304 9.01278C46.7952 9.01278 46.0727 9.14536 45.4628 9.41051C44.853 9.66903 44.379 10.027 44.041 10.4844C43.7095 10.9351 43.5438 11.4489 43.5438 12.0256C43.5438 12.5095 43.6565 12.9271 43.8819 13.2784C44.1139 13.6297 44.4155 13.9247 44.7867 14.1634C45.1645 14.3954 45.5689 14.5909 45.9998 14.75C46.4306 14.9025 46.8449 15.0284 47.2427 15.1278L49.2313 15.6449C49.8809 15.804 50.5471 16.0194 51.2299 16.2912C51.9126 16.563 52.5457 16.9209 53.129 17.3651C53.7124 17.8092 54.183 18.3594 54.541 19.0156C54.9055 19.6719 55.0878 20.4574 55.0878 21.3722C55.0878 22.5256 54.7895 23.5497 54.1929 24.4446C53.603 25.3395 52.7446 26.0455 51.6177 26.5625C50.4974 27.0795 49.1418 27.3381 47.5509 27.3381C46.0263 27.3381 44.7072 27.0961 43.5935 26.6122C42.4799 26.1283 41.6082 25.4422 40.9785 24.554C40.3487 23.6591 40.0007 22.5985 39.9344 21.3722H43.0168C43.0765 22.108 43.3151 22.7211 43.7327 23.2116C44.157 23.6955 44.6972 24.0568 45.3535 24.2955C46.0163 24.5275 46.7422 24.6435 47.531 24.6435C48.3994 24.6435 49.1716 24.5076 49.8478 24.2358C50.5305 23.9574 51.0675 23.5729 51.4586 23.0824C51.8497 22.5852 52.0452 22.0052 52.0452 21.3423C52.0452 20.7391 51.8729 20.2453 51.5282 19.8608C51.1901 19.4763 50.7294 19.1581 50.1461 18.9062C49.5694 18.6544 48.9164 18.4323 48.1873 18.2401L45.781 17.5838C44.1503 17.1397 42.8577 16.4867 41.9032 15.625C40.9553 14.7633 40.4813 13.6231 40.4813 12.2045C40.4813 11.0312 40.7995 10.0071 41.4358 9.1321C42.0722 8.2571 42.934 7.57765 44.0211 7.09375C45.1082 6.60322 46.3345 6.35795 47.7 6.35795C49.0788 6.35795 50.2952 6.5999 51.3492 7.08381C52.4098 7.56771 53.245 8.2339 53.8549 9.08239C54.4647 9.92424 54.7829 10.892 54.8094 11.9858H51.8464ZM61.8318 27L57.3375 11.7273H60.4099L63.4028 22.9432H63.552L66.5548 11.7273H69.6273L72.6102 22.8935H72.7594L75.7324 11.7273H78.8048L74.3204 27H71.2878L68.1855 15.973H67.9568L64.8545 27H61.8318ZM86.0708 27.3381C85.103 27.3381 84.228 27.1591 83.4458 26.8011C82.6636 26.4366 82.0438 25.9096 81.5864 25.2202C81.1357 24.5308 80.9103 23.6856 80.9103 22.6847C80.9103 21.8229 81.076 21.1136 81.4074 20.5568C81.7389 20 82.1863 19.5592 82.7498 19.2344C83.3132 18.9096 83.9429 18.6643 84.639 18.4986C85.335 18.3329 86.0443 18.2069 86.7668 18.1207C87.6816 18.0147 88.424 17.9285 88.9941 17.8622C89.5642 17.7893 89.9785 17.6733 90.237 17.5142C90.4955 17.3551 90.6248 17.0966 90.6248 16.7386V16.669C90.6248 15.8007 90.3795 15.1278 89.889 14.6506C89.4051 14.1733 88.6825 13.9347 87.7214 13.9347C86.7204 13.9347 85.9316 14.1567 85.3549 14.6009C84.7848 15.0384 84.3904 15.5256 84.1716 16.0625L81.3776 15.4261C81.709 14.4981 82.1929 13.7491 82.8293 13.179C83.4723 12.6023 84.2114 12.1847 85.0466 11.9261C85.8819 11.661 86.7602 11.5284 87.6816 11.5284C88.2914 11.5284 88.9377 11.6013 89.6205 11.7472C90.3099 11.8864 90.9529 12.1449 91.5495 12.5227C92.1527 12.9006 92.6465 13.4408 93.031 14.1435C93.4155 14.8395 93.6077 15.7443 93.6077 16.858V27H90.7043V24.9119H90.585C90.3928 25.2964 90.1044 25.6742 89.7199 26.0455C89.3355 26.4167 88.8416 26.7249 88.2384 26.9702C87.6352 27.2154 86.9126 27.3381 86.0708 27.3381ZM86.7171 24.9517C87.5391 24.9517 88.2417 24.7893 88.825 24.4645C89.415 24.1397 89.8625 23.7154 90.1674 23.1918C90.4789 22.6615 90.6347 22.0947 90.6347 21.4915V19.5227C90.5286 19.6288 90.3232 19.7282 90.0182 19.821C89.7199 19.9072 89.3786 19.9834 88.9941 20.0497C88.6096 20.1094 88.2351 20.1657 87.8705 20.2188C87.5059 20.2652 87.201 20.3049 86.9557 20.3381C86.379 20.411 85.852 20.5336 85.3748 20.706C84.9041 20.8783 84.5263 21.1269 84.2412 21.4517C83.9628 21.7699 83.8236 22.1941 83.8236 22.7244C83.8236 23.4602 84.0954 24.017 84.639 24.3949C85.1825 24.7661 85.8752 24.9517 86.7171 24.9517ZM109.012 15.456L106.318 15.9332C106.205 15.5885 106.026 15.2604 105.781 14.9489C105.542 14.6373 105.217 14.3821 104.806 14.1832C104.395 13.9844 103.882 13.8849 103.265 13.8849C102.423 13.8849 101.721 14.0739 101.157 14.4517C100.594 14.8229 100.312 15.3035 100.312 15.8935C100.312 16.4039 100.501 16.8149 100.879 17.1264C101.257 17.438 101.866 17.6932 102.708 17.892L105.134 18.4489C106.54 18.7737 107.587 19.2741 108.276 19.9503C108.966 20.6264 109.31 21.5047 109.31 22.5852C109.31 23.5 109.045 24.3153 108.515 25.0312C107.991 25.7405 107.259 26.2973 106.318 26.7017C105.383 27.1061 104.299 27.3082 103.066 27.3082C101.356 27.3082 99.9606 26.9437 98.8801 26.2145C97.7996 25.4787 97.1367 24.4347 96.8915 23.0824L99.765 22.6449C99.944 23.3939 100.312 23.9607 100.869 24.3452C101.426 24.723 102.151 24.9119 103.046 24.9119C104.021 24.9119 104.8 24.7098 105.383 24.3054C105.966 23.8944 106.258 23.3939 106.258 22.804C106.258 22.3267 106.079 21.9257 105.721 21.6009C105.37 21.276 104.829 21.0308 104.1 20.8651L101.515 20.2983C100.09 19.9735 99.0359 19.4564 98.3531 18.7472C97.677 18.0379 97.3389 17.1397 97.3389 16.0526C97.3389 15.151 97.5908 14.3622 98.0946 13.6861C98.5984 13.0099 99.2944 12.483 100.183 12.1051C101.071 11.7206 102.088 11.5284 103.235 11.5284C104.886 11.5284 106.185 11.8864 107.133 12.6023C108.081 13.3116 108.707 14.2628 109.012 15.456ZM119.709 11.7273V14.1136H111.366V11.7273H119.709ZM113.603 8.06818H116.576V22.5156C116.576 23.0923 116.663 23.5265 116.835 23.8182C117.007 24.1032 117.229 24.2988 117.501 24.4048C117.78 24.5043 118.081 24.554 118.406 24.554C118.645 24.554 118.853 24.5374 119.032 24.5043C119.211 24.4711 119.351 24.4446 119.45 24.4247L119.987 26.8807C119.815 26.947 119.569 27.0133 119.251 27.0795C118.933 27.1525 118.535 27.1922 118.058 27.1989C117.276 27.2121 116.547 27.0729 115.871 26.7812C115.194 26.4896 114.647 26.0388 114.23 25.429C113.812 24.8191 113.603 24.0535 113.603 23.1321V8.06818ZM122.997 27V11.7273H125.97V27H122.997ZM124.499 9.37074C123.982 9.37074 123.538 9.19839 123.166 8.85369C122.802 8.50237 122.619 8.08475 122.619 7.60085C122.619 7.11032 122.802 6.69271 123.166 6.34801C123.538 5.99668 123.982 5.82102 124.499 5.82102C125.016 5.82102 125.457 5.99668 125.821 6.34801C126.192 6.69271 126.378 7.11032 126.378 7.60085C126.378 8.08475 126.192 8.50237 125.821 8.85369C125.457 9.19839 125.016 9.37074 124.499 9.37074ZM132.704 21.8196L132.684 18.1903H133.201L139.287 11.7273H142.846L135.906 19.0852H135.439L132.704 21.8196ZM129.97 27V6.63636H132.943V27H129.97ZM139.615 27L134.146 19.7415L136.194 17.6634L143.264 27H139.615ZM150 27.3381C149.033 27.3381 148.158 27.1591 147.375 26.8011C146.593 26.4366 145.973 25.9096 145.516 25.2202C145.065 24.5308 144.84 23.6856 144.84 22.6847C144.84 21.8229 145.006 21.1136 145.337 20.5568C145.669 20 146.116 19.5592 146.679 19.2344C147.243 18.9096 147.873 18.6643 148.569 18.4986C149.265 18.3329 149.974 18.2069 150.697 18.1207C151.611 18.0147 152.354 17.9285 152.924 17.8622C153.494 17.7893 153.908 17.6733 154.167 17.5142C154.425 17.3551 154.554 17.0966 154.554 16.7386V16.669C154.554 15.8007 154.309 15.1278 153.819 14.6506C153.335 14.1733 152.612 13.9347 151.651 13.9347C150.65 13.9347 149.861 14.1567 149.285 14.6009C148.714 15.0384 148.32 15.5256 148.101 16.0625L145.307 15.4261C145.639 14.4981 146.123 13.7491 146.759 13.179C147.402 12.6023 148.141 12.1847 148.976 11.9261C149.812 11.661 150.69 11.5284 151.611 11.5284C152.221 11.5284 152.867 11.6013 153.55 11.7472C154.24 11.8864 154.883 12.1449 155.479 12.5227C156.082 12.9006 156.576 13.4408 156.961 14.1435C157.345 14.8395 157.537 15.7443 157.537 16.858V27H154.634V24.9119H154.515C154.322 25.2964 154.034 25.6742 153.65 26.0455C153.265 26.4167 152.771 26.7249 152.168 26.9702C151.565 27.2154 150.842 27.3381 150 27.3381ZM150.647 24.9517C151.469 24.9517 152.171 24.7893 152.755 24.4645C153.345 24.1397 153.792 23.7154 154.097 23.1918C154.409 22.6615 154.564 22.0947 154.564 21.4915V19.5227C154.458 19.6288 154.253 19.7282 153.948 19.821C153.65 19.9072 153.308 19.9834 152.924 20.0497C152.539 20.1094 152.165 20.1657 151.8 20.2188C151.436 20.2652 151.131 20.3049 150.885 20.3381C150.309 20.411 149.782 20.5336 149.304 20.706C148.834 20.8783 148.456 21.1269 148.171 21.4517C147.893 21.7699 147.753 22.1941 147.753 22.7244C147.753 23.4602 148.025 24.017 148.569 24.3949C149.112 24.7661 149.805 24.9517 150.647 24.9517Z" fill="#2B2E49"/>
<path d="M27.417 13.3335L27.417 60.0002" stroke="#5ABEE6" stroke-width="9" stroke-linecap="round"/>
<path d="M162.25 39.0001L4.75 39.0001" stroke="#5ABEE6" stroke-width="9" stroke-linecap="round"/>
</svg>
